<svg width="74" height="15" viewBox="0 0 74 15" fill="none" xmlns="http://www.w3.org/2000/svg">
<path d="M10.894 14H7.436L3.18 7.844V14H0.14V0.699999H3.18V6.476L7.246 0.699999H10.704L6.22 7.179L10.894 14ZM11.9386 3.36V0.699999H14.7886V3.36H11.9386ZM11.9386 14V4.5H14.7886V14H11.9386ZM22.1941 4.234C23.0934 4.234 23.8218 4.56967 24.3791 5.241C24.9491 5.89967 25.2341 6.81167 25.2341 7.977V14H22.3841V8.224C22.3841 7.768 22.2638 7.426 22.0231 7.198C21.7951 6.97 21.4911 6.856 21.1111 6.856C20.1864 6.856 19.7241 7.388 19.7241 8.452V14H16.8741V4.5H19.7241V5.374C20.2181 4.614 21.0414 4.234 22.1941 4.234ZM35.2112 12.822C34.2358 13.7847 33.0452 14.266 31.6392 14.266C30.2332 14.266 29.0425 13.7847 28.0672 12.822C27.0918 11.8467 26.6042 10.656 26.6042 9.25C26.6042 7.844 27.0918 6.65967 28.0672 5.697C29.0425 4.72167 30.2332 4.234 31.6392 4.234C33.0452 4.234 34.2358 4.72167 35.2112 5.697C36.1865 6.65967 36.6742 7.844 36.6742 9.25C36.6742 10.656 36.1865 11.8467 35.2112 12.822ZM30.0812 10.865C30.4992 11.283 31.0185 11.492 31.6392 11.492C32.2598 11.492 32.7792 11.283 33.1972 10.865C33.6152 10.447 33.8242 9.90867 33.8242 9.25C33.8242 8.59133 33.6152 8.053 33.1972 7.635C32.7792 7.217 32.2598 7.008 31.6392 7.008C31.0185 7.008 30.4992 7.217 30.0812 7.635C29.6632 8.053 29.4542 8.59133 29.4542 9.25C29.4542 9.90867 29.6632 10.447 30.0812 10.865Z" fill="#3657CB"/>
<path d="M39.4072 5.184C40.1672 4.55067 41.1045 4.234 42.2192 4.234C43.3339 4.234 44.2712 4.56333 45.0312 5.222C45.7912 5.868 46.1712 6.799 46.1712 8.015V14H43.3972V13.259C42.8145 13.9303 41.9975 14.266 40.9462 14.266C40.0595 14.266 39.3122 14.0063 38.7042 13.487C38.1089 12.9677 37.8112 12.2393 37.8112 11.302C37.8112 10.3647 38.1089 9.63633 38.7042 9.117C39.3122 8.59767 40.0595 8.338 40.9462 8.338C41.9342 8.338 42.7512 8.57867 43.3972 9.06V8.205C43.3972 7.30567 43.0045 6.856 42.2192 6.856C41.8392 6.856 41.5479 6.94467 41.3452 7.122C41.1425 7.29933 41.0412 7.53367 41.0412 7.825H38.2672C38.2672 6.69767 38.6472 5.81733 39.4072 5.184ZM41.9532 12.252C42.4092 12.252 42.7639 12.1633 43.0172 11.986C43.2705 11.8087 43.3972 11.5807 43.3972 11.302C43.3972 11.0107 43.2705 10.7827 43.0172 10.618C42.7639 10.4407 42.4092 10.352 41.9532 10.352C41.5352 10.352 41.2122 10.4407 40.9842 10.618C40.7689 10.7827 40.6612 11.0107 40.6612 11.302C40.6612 11.5933 40.7689 11.8277 40.9842 12.005C41.2122 12.1697 41.5352 12.252 41.9532 12.252ZM50.8589 6.001C51.0109 5.45633 51.3085 5.03833 51.7519 4.747C52.1952 4.45567 52.7209 4.31 53.3289 4.31V7.54C52.6702 7.43867 52.0939 7.54633 51.5999 7.863C51.1059 8.17967 50.8589 8.73067 50.8589 9.516V14H48.0089V4.5H50.8589V6.001ZM56.8811 10.39C57.1978 11.4413 57.9388 11.967 59.1041 11.967C59.4461 11.967 59.7691 11.9037 60.0731 11.777C60.3771 11.6377 60.5988 11.4603 60.7381 11.245L63.5121 11.226C63.2081 12.214 62.6635 12.9677 61.8781 13.487C61.0928 14.0063 60.1555 14.266 59.0661 14.266C57.5208 14.266 56.2731 13.791 55.3231 12.841C54.3731 11.891 53.8981 10.694 53.8981 9.25C53.8981 7.81867 54.3731 6.628 55.3231 5.678C56.2858 4.71533 57.5081 4.234 58.9901 4.234C60.3708 4.234 61.5108 4.709 62.4101 5.659C63.3221 6.609 63.7781 7.806 63.7781 9.25C63.7781 9.65533 63.7401 10.0353 63.6641 10.39H56.8811ZM56.8621 8.224H60.9471C60.6685 7.24867 60.0098 6.761 58.9711 6.761C57.8818 6.761 57.1788 7.24867 56.8621 8.224ZM66.4785 5.184C67.2385 4.55067 68.1758 4.234 69.2905 4.234C70.4052 4.234 71.3425 4.56333 72.1025 5.222C72.8625 5.868 73.2425 6.799 73.2425 8.015V14H70.4685V13.259C69.8858 13.9303 69.0688 14.266 68.0175 14.266C67.1308 14.266 66.3835 14.0063 65.7755 13.487C65.1802 12.9677 64.8825 12.2393 64.8825 11.302C64.8825 10.3647 65.1802 9.63633 65.7755 9.117C66.3835 8.59767 67.1308 8.338 68.0175 8.338C69.0055 8.338 69.8225 8.57867 70.4685 9.06V8.205C70.4685 7.30567 70.0758 6.856 69.2905 6.856C68.9105 6.856 68.6192 6.94467 68.4165 7.122C68.2138 7.29933 68.1125 7.53367 68.1125 7.825H65.3385C65.3385 6.69767 65.7185 5.81733 66.4785 5.184ZM69.0245 12.252C69.4805 12.252 69.8352 12.1633 70.0885 11.986C70.3418 11.8087 70.4685 11.5807 70.4685 11.302C70.4685 11.0107 70.3418 10.7827 70.0885 10.618C69.8352 10.4407 69.4805 10.352 69.0245 10.352C68.6065 10.352 68.2835 10.4407 68.0555 10.618C67.8402 10.7827 67.7325 11.0107 67.7325 11.302C67.7325 11.5933 67.8402 11.8277 68.0555 12.005C68.2835 12.1697 68.6065 12.252 69.0245 12.252Z" fill="white"/>
</svg>
